<?xml version="1.0" standalone="no"?>
<!DOCTYPE svg PUBLIC "-//W3C//DTD SVG 1.1//EN" "http://www.w3.org/Graphics/SVG/1.1/DTD/svg11.dtd">
<svg width="800" height="600" version="1.1" xmlns="http://www.w3.org/2000/svg">
<rect width="800" height="600" x="0" y="0" style="fill:rgb(238,238,238);stroke:none"/>
<rect width="800" height="600" x="0" y="0" style="fill:rgb(255,255,255);stroke:none"/>
<text x="2" y="566" fill="rgb(0,0,0)" font-family="Arial" font-size="12">0</text>
<text x="2" y="467" fill="rgb(0,0,0)" font-family="Arial" font-size="12">100000</text>
<text x="2" y="367" fill="rgb(0,0,0)" font-family="Arial" font-size="12">200000</text>
<text x="2" y="267" fill="rgb(0,0,0)" font-family="Arial" font-size="12">300000</text>
<text x="2" y="167" fill="rgb(0,0,0)" font-family="Arial" font-size="12">400000</text>
<text x="2" y="67" fill="rgb(0,0,0)" font-family="Arial" font-size="12">500000</text>
<text x="282" y="30" fill="rgb(0,0,0)" font-family="Arial" font-size="12">Quality score distribution over all sequences</text>
<line x1="53" y1="560" x2="790" y2="560" stroke="rgb(0,0,0)" stroke-width="1"/>
<line x1="53" y1="560" x2="53" y2="40" stroke="rgb(0,0,0)" stroke-width="1"/>
<text x="281" y="595" fill="rgb(0,0,0)" font-family="Arial" font-size="12">Mean Sequence Quality (Phred Score)</text>
<text x="71" y="575" fill="rgb(0,0,0)" font-family="Arial" font-size="12">22</text>
<rect width="52" height="520" x="105" y="40" style="fill:rgb(230,230,230);stroke:none"/>
<text x="123" y="575" fill="rgb(0,0,0)" font-family="Arial" font-size="12">23</text>
<text x="175" y="575" fill="rgb(0,0,0)" font-family="Arial" font-size="12">24</text>
<rect width="52" height="520" x="209" y="40" style="fill:rgb(230,230,230);stroke:none"/>
<text x="227" y="575" fill="rgb(0,0,0)" font-family="Arial" font-size="12">25</text>
<text x="279" y="575" fill="rgb(0,0,0)" font-family="Arial" font-size="12">26</text>
<rect width="52" height="520" x="313" y="40" style="fill:rgb(230,230,230);stroke:none"/>
<text x="331" y="575" fill="rgb(0,0,0)" font-family="Arial" font-size="12">27</text>
<text x="383" y="575" fill="rgb(0,0,0)" font-family="Arial" font-size="12">28</text>
<rect width="52" height="520" x="417" y="40" style="fill:rgb(230,230,230);stroke:none"/>
<text x="435" y="575" fill="rgb(0,0,0)" font-family="Arial" font-size="12">29</text>
<text x="487" y="575" fill="rgb(0,0,0)" font-family="Arial" font-size="12">30</text>
<rect width="52" height="520" x="521" y="40" style="fill:rgb(230,230,230);stroke:none"/>
<text x="539" y="575" fill="rgb(0,0,0)" font-family="Arial" font-size="12">31</text>
<text x="591" y="575" fill="rgb(0,0,0)" font-family="Arial" font-size="12">32</text>
<rect width="52" height="520" x="625" y="40" style="fill:rgb(230,230,230);stroke:none"/>
<text x="643" y="575" fill="rgb(0,0,0)" font-family="Arial" font-size="12">33</text>
<text x="695" y="575" fill="rgb(0,0,0)" font-family="Arial" font-size="12">34</text>
<rect width="52" height="520" x="729" y="40" style="fill:rgb(230,230,230);stroke:none"/>
<text x="747" y="575" fill="rgb(0,0,0)" font-family="Arial" font-size="12">35</text>
<line x1="53" y1="560" x2="790" y2="560" stroke="rgb(180,180,180)" stroke-width="1"/>
<line x1="53" y1="461" x2="790" y2="461" stroke="rgb(180,180,180)" stroke-width="1"/>
<line x1="53" y1="361" x2="790" y2="361" stroke="rgb(180,180,180)" stroke-width="1"/>
<line x1="53" y1="261" x2="790" y2="261" stroke="rgb(180,180,180)" stroke-width="1"/>
<line x1="53" y1="161" x2="790" y2="161" stroke="rgb(180,180,180)" stroke-width="1"/>
<line x1="53" y1="61" x2="790" y2="61" stroke="rgb(180,180,180)" stroke-width="1"/>
<line x1="79" y1="560" x2="131" y2="560" stroke="rgb(136,34,85)" stroke-width="1"/>
<line x1="131" y1="560" x2="183" y2="560" stroke="rgb(136,34,85)" stroke-width="1"/>
<line x1="183" y1="560" x2="235" y2="560" stroke="rgb(136,34,85)" stroke-width="1"/>
<line x1="235" y1="560" x2="287" y2="557" stroke="rgb(136,34,85)" stroke-width="1"/>
<line x1="287" y1="557" x2="339" y2="552" stroke="rgb(136,34,85)" stroke-width="1"/>
<line x1="339" y1="552" x2="391" y2="544" stroke="rgb(136,34,85)" stroke-width="1"/>
<line x1="391" y1="544" x2="443" y2="533" stroke="rgb(136,34,85)" stroke-width="1"/>
<line x1="443" y1="533" x2="495" y2="520" stroke="rgb(136,34,85)" stroke-width="1"/>
<line x1="495" y1="520" x2="547" y2="500" stroke="rgb(136,34,85)" stroke-width="1"/>
<line x1="547" y1="500" x2="599" y2="462" stroke="rgb(136,34,85)" stroke-width="1"/>
<line x1="599" y1="462" x2="651" y2="365" stroke="rgb(136,34,85)" stroke-width="1"/>
<line x1="651" y1="365" x2="703" y2="40" stroke="rgb(136,34,85)" stroke-width="1"/>
<line x1="703" y1="40" x2="755" y2="263" stroke="rgb(136,34,85)" stroke-width="1"/>
<rect width="183" height="23" x="607" y="40" style="fill:rgb(255,255,255);stroke:none"/>
<rect width="183" height="23" x="607" y="40" rx="0" ry="0" style="fill:none;stroke-width:1;stroke:rgb(192,192,192)"/>
<text x="610" y="55" fill="rgb(136,34,85)" font-family="Arial" font-size="12" font-weight="bold">Average Quality per read</text>
</svg>
